<svg width="29" height="30" viewBox="0 0 29 30" fill="none" xmlns="http://www.w3.org/2000/svg">
<path d="M14.5 9.53125V7.34375M14.5 9.53125C12.524 9.53125 10.5669 9.61291 8.63167 9.77333C6.98229 9.91041 5.75 11.3148 5.75 12.97V16.6348C8.61708 16.2775 11.5367 16.0937 14.5 16.0937C17.4251 16.0929 20.3473 16.2736 23.25 16.6348M14.5 9.53125C16.476 9.53125 18.4331 9.61291 20.3683 9.77333C22.0177 9.91041 23.25 11.3148 23.25 12.97V16.6348M23.25 16.6348C23.8188 16.7062 24.3831 16.7835 24.946 16.8681C26.5065 17.1015 27.625 18.4635 27.625 20.04V27.5781C27.625 28.4837 26.89 29.2187 25.9844 29.2187H3.01563C2.5805 29.2187 2.1632 29.0459 1.85553 28.7382C1.54785 28.4305 1.375 28.0132 1.375 27.5781V20.0385C1.375 18.4635 2.495 17.1015 4.05396 16.8681C4.61832 16.7829 5.18371 16.7046 5.75 16.6333M18.875 9.53125V7.34375M10.125 9.53125V7.34375M27.625 21.5625L25.4375 22.6562C24.7583 22.9959 24.0094 23.1727 23.25 23.1727C22.4906 23.1727 21.7417 22.9959 21.0625 22.6562C20.3833 22.3166 19.6344 22.1398 18.875 22.1398C18.1156 22.1398 17.3667 22.3166 16.6875 22.6562C16.0083 22.9959 15.2594 23.1727 14.5 23.1727C13.7406 23.1727 12.9917 22.9959 12.3125 22.6562C11.6333 22.3166 10.8844 22.1398 10.125 22.1398C9.36563 22.1398 8.61669 22.3166 7.9375 22.6562C7.25831 22.9959 6.50937 23.1727 5.75 23.1727C4.99063 23.1727 4.24169 22.9959 3.5625 22.6562L1.375 21.5625M14.8865 2.03541C14.963 2.11187 15.0152 2.20931 15.0363 2.31541C15.0575 2.42152 15.0467 2.53151 15.0053 2.63148C14.9639 2.73144 14.8938 2.8169 14.8039 2.87702C14.714 2.93714 14.6082 2.96923 14.5 2.96923C14.3918 2.96923 14.286 2.93714 14.1961 2.87702C14.1062 2.8169 14.0361 2.73144 13.9947 2.63148C13.9533 2.53151 13.9425 2.42152 13.9637 2.31541C13.9848 2.20931 14.037 2.11187 14.1135 2.03541L14.5 1.64896L14.8865 2.03541ZM10.5115 2.03541C10.588 2.11187 10.6402 2.20931 10.6613 2.31541C10.6825 2.42152 10.6717 2.53151 10.6303 2.63148C10.5889 2.73144 10.5188 2.8169 10.4289 2.87702C10.339 2.93714 10.2332 2.96923 10.125 2.96923C10.0168 2.96923 9.91105 2.93714 9.8211 2.87702C9.73115 2.8169 9.66106 2.73144 9.61969 2.63148C9.57832 2.53151 9.56753 2.42152 9.58868 2.31541C9.60984 2.20931 9.66199 2.11187 9.73854 2.03541L10.125 1.64896L10.5115 2.03541ZM19.2615 2.03541C19.338 2.11187 19.3902 2.20931 19.4113 2.31541C19.4325 2.42152 19.4217 2.53151 19.3803 2.63148C19.3389 2.73144 19.2688 2.8169 19.1789 2.87702C19.089 2.93714 18.9832 2.96923 18.875 2.96923C18.7668 2.96923 18.6611 2.93714 18.5711 2.87702C18.4812 2.8169 18.4111 2.73144 18.3697 2.63148C18.3283 2.53151 18.3175 2.42152 18.3387 2.31541C18.3598 2.20931 18.412 2.11187 18.4885 2.03541L18.875 1.64896L19.2615 2.03541Z" stroke="#616161" stroke-width="1.5" stroke-linecap="round" stroke-linejoin="round"/>
</svg>
