<svg width="31" height="30" viewBox="0 0 31 30" fill="none" xmlns="http://www.w3.org/2000/svg">
<path d="M12.3106 20.6933L11.125 24.8438L9.93938 20.6933C9.63294 19.6213 9.0584 18.6449 8.26996 17.8565C7.48153 17.0681 6.5052 16.4935 5.43313 16.1871L1.28125 15L5.43167 13.8144C6.50375 13.5079 7.48007 12.9334 8.2685 12.145C9.05694 11.3565 9.63148 10.3802 9.93792 9.30813L11.125 5.15625L12.3106 9.30667C12.6171 10.3787 13.1916 11.3551 13.98 12.1435C14.7685 12.9319 15.7448 13.5065 16.8169 13.8129L20.9688 15L16.8183 16.1856C15.7463 16.4921 14.7699 17.0666 13.9815 17.855C13.1931 18.6435 12.6185 19.6198 12.3121 20.6919L12.3106 20.6933ZM24.6277 10.2094L24.25 11.7188L23.8723 10.2094C23.6561 9.34398 23.2088 8.55361 22.5782 7.92275C21.9476 7.29189 21.1574 6.84426 20.2921 6.62771L18.7813 6.25L20.2921 5.87229C21.1574 5.65574 21.9476 5.20811 22.5782 4.57725C23.2088 3.94639 23.6561 3.15602 23.8723 2.29063L24.25 0.78125L24.6277 2.29063C24.844 3.1562 25.2916 3.94669 25.9224 4.57757C26.5533 5.20844 27.3438 5.65597 28.2094 5.87229L29.7188 6.25L28.2094 6.62771C27.3438 6.84403 26.5533 7.29156 25.9224 7.92243C25.2916 8.55331 24.844 9.3438 24.6277 10.2094ZM22.6371 27.4935L22.0625 29.2188L21.4879 27.4935C21.3268 27.0103 21.0554 26.5712 20.6953 26.211C20.3351 25.8508 19.896 25.5794 19.4127 25.4183L17.6875 24.8438L19.4127 24.2692C19.896 24.1081 20.3351 23.8367 20.6953 23.4765C21.0554 23.1163 21.3268 22.6772 21.4879 22.194L22.0625 20.4688L22.6371 22.194C22.7982 22.6772 23.0696 23.1163 23.4297 23.4765C23.7899 23.8367 24.229 24.1081 24.7123 24.2692L26.4375 24.8438L24.7123 25.4183C24.229 25.5794 23.7899 25.8508 23.4297 26.211C23.0696 26.5712 22.7982 27.0103 22.6371 27.4935Z" stroke="#616161" stroke-width="1.5" stroke-linecap="round" stroke-linejoin="round"/>
</svg>
