<svg width="22" height="25" viewBox="0 0 22 25" fill="none" xmlns="http://www.w3.org/2000/svg">
<path d="M21.2875 3.04249L11.2875 0.0424942C11.1382 -0.00232194 10.9805 -0.0116139 10.827 0.0153602C10.6734 0.0423343 10.5283 0.104827 10.4032 0.197851C10.2782 0.290874 10.1766 0.411851 10.1065 0.551125C10.0365 0.690399 10 0.844112 10 0.999994V14.5325C8.97588 13.6165 7.6684 13.0797 6.29608 13.0119C4.92376 12.9441 3.56974 13.3494 2.46031 14.16C1.35089 14.9706 0.553286 16.1374 0.200801 17.4654C-0.151684 18.7934 -0.037692 20.2022 0.523725 21.4562C1.08514 22.7103 2.05997 23.7337 3.28528 24.3554C4.5106 24.977 5.91216 25.1593 7.25573 24.8718C8.5993 24.5842 9.80347 23.8442 10.667 22.7755C11.5305 21.7067 12.0011 20.374 12 19V8.34374L20.7125 10.9575C20.8618 11.0023 21.0195 11.0116 21.173 10.9846C21.3266 10.9577 21.4717 10.8952 21.5968 10.8021C21.7218 10.7091 21.8234 10.5881 21.8935 10.4489C21.9635 10.3096 22 10.1559 22 9.99999V3.99999C21.9999 3.78501 21.9306 3.57577 21.8023 3.4033C21.6739 3.23082 21.4934 3.1043 21.2875 3.04249ZM6 23C5.20888 23 4.43552 22.7654 3.77772 22.3259C3.11992 21.8863 2.60723 21.2616 2.30448 20.5307C2.00173 19.7998 1.92252 18.9956 2.07686 18.2196C2.2312 17.4437 2.61216 16.731 3.17157 16.1716C3.73098 15.6122 4.44372 15.2312 5.21964 15.0769C5.99556 14.9225 6.79983 15.0017 7.53074 15.3045C8.26164 15.6072 8.88635 16.1199 9.32588 16.7777C9.76541 17.4355 10 18.2089 10 19C10 20.0609 9.57858 21.0783 8.82843 21.8284C8.07828 22.5786 7.06087 23 6 23ZM20 8.65624L12 6.25624V2.34374L20 4.74999V8.65624Z" fill="#616161"/>
</svg>
