<svg width="22" height="29" viewBox="0 0 22 29" fill="none" xmlns="http://www.w3.org/2000/svg">
<path d="M21.8375 26.2125C21.8337 26.2018 21.8291 26.1913 21.8238 26.1812L16.1388 14.0737L18.7013 10.0513C18.7063 10.044 18.7109 10.0365 18.715 10.0288C18.9014 9.71798 18.9999 9.36239 18.9999 9C18.9999 8.63761 18.9014 8.28203 18.715 7.97125C18.7038 7.95125 18.69 7.93125 18.6775 7.9125L16 4.0875V1C16 0.734784 15.8947 0.48043 15.7071 0.292893C15.5196 0.105357 15.2653 0 15 0C14.7348 0 14.4805 0.105357 14.2929 0.292893C14.1054 0.48043 14 0.734784 14 1V4.0525L13.3425 4.875C13.0615 5.22628 12.705 5.50986 12.2995 5.70473C11.894 5.8996 11.4499 6.00078 11 6.00078C10.5502 6.00078 10.106 5.8996 9.70055 5.70473C9.29507 5.50986 8.9386 5.22628 8.65754 4.875L8.00004 4.0525V1C8.00004 0.734784 7.89468 0.48043 7.70715 0.292893C7.51961 0.105357 7.26526 0 7.00004 0C6.73483 0 6.48047 0.105357 6.29294 0.292893C6.1054 0.48043 6.00004 0.734784 6.00004 1V4.0875L3.32254 7.9125C3.31004 7.93125 3.29629 7.95125 3.28504 7.97125C3.09864 8.28203 3.00017 8.63761 3.00017 9C3.00017 9.36239 3.09864 9.71798 3.28504 10.0288C3.28917 10.0365 3.29376 10.044 3.29879 10.0513L5.86129 14.0737L0.176292 26.1812C0.170961 26.1913 0.166365 26.2018 0.162542 26.2125C0.0322676 26.5166 -0.0205222 26.8483 0.008902 27.1779C0.0383262 27.5074 0.149045 27.8245 0.331139 28.1007C0.513232 28.377 0.761012 28.6037 1.05228 28.7607C1.34354 28.9176 1.66919 28.9998 2.00004 29H20C20.331 29.0001 20.6568 28.918 20.9482 28.7611C21.2397 28.6043 21.4876 28.3775 21.6699 28.1013C21.8521 27.825 21.9629 27.5078 21.9924 27.1782C22.0219 26.8485 21.9691 26.5167 21.8388 26.2125H21.8375ZM5.00004 9L7.05379 6.07125L7.09504 6.12375C7.56346 6.70952 8.15766 7.18241 8.83362 7.50738C9.50959 7.83236 10.25 8.00109 11 8.00109C11.7501 8.00109 12.4905 7.83236 13.1665 7.50738C13.8424 7.18241 14.4366 6.70952 14.905 6.12375L14.9463 6.07125L17 9L14.4525 13H7.54879L5.00004 9ZM2.00004 27L7.63379 15H14.3638L20 27H2.00004Z" fill="#616161"/>
</svg>
