<svg width="18" height="19" viewBox="0 0 18 19" fill="none" xmlns="http://www.w3.org/2000/svg">
<path d="M14.25 7.625C14.25 12.9815 8.625 16.0625 8.625 16.0625C8.625 16.0625 3 12.9815 3 7.625C3 6.13316 3.59263 4.70242 4.64752 3.64752C5.70242 2.59263 7.13316 2 8.625 2C10.1168 2 11.5476 2.59263 12.6025 3.64752C13.6574 4.70242 14.25 6.13316 14.25 7.625Z" stroke="#FF7043" stroke-width="1.5" stroke-linecap="round" stroke-linejoin="round"/>
<path d="M11.25 7.90234C11.25 8.50115 11.0129 9.07544 10.591 9.49886C10.169 9.92228 9.59674 10.1602 9 10.1602C8.40326 10.1602 7.83097 9.92228 7.40901 9.49886C6.98705 9.07544 6.75 8.50115 6.75 7.90234C6.75 7.30353 6.98705 6.72925 7.40901 6.30583C7.83097 5.88241 8.40326 5.64453 9 5.64453C9.59674 5.64453 10.169 5.88241 10.591 6.30583C11.0129 6.72925 11.25 7.30353 11.25 7.90234Z" stroke="#FF7043" stroke-width="1.5" stroke-linecap="round" stroke-linejoin="round"/>
</svg>
