<svg width="19" height="17" viewBox="0 0 19 17" fill="none" xmlns="http://www.w3.org/2000/svg">
<path d="M13.9096 11.2356C14.3174 10.9579 14.7958 10.8009 15.2893 10.783C15.7828 10.765 16.2714 10.8868 16.6984 11.1343C17.1254 11.3817 17.4735 11.7447 17.7023 12.1812C17.9311 12.6177 18.0314 13.1099 17.9914 13.6009C16.9454 13.9655 15.8344 14.1074 14.73 14.0174C14.7266 13.0318 14.442 12.0667 13.9096 11.2365C13.437 10.4972 12.7851 9.88872 12.0141 9.46739C11.2432 9.04606 10.3782 8.82548 9.4991 8.82608C8.62017 8.82563 7.75533 9.04627 6.98456 9.4676C6.21379 9.88892 5.562 10.4973 5.08947 11.2365M14.7291 14.0165L14.73 14.0435C14.73 14.2391 14.7195 14.4322 14.6977 14.6226C13.1157 15.5279 11.323 16.0029 9.4991 16C7.60727 16 5.83138 15.4991 4.30048 14.6226C4.27807 14.4214 4.2673 14.219 4.26822 14.0165M4.26822 14.0165C3.16418 14.1098 2.05374 13.9684 1.00851 13.6017C0.968715 13.1109 1.06901 12.6189 1.29781 12.1825C1.5266 11.7461 1.87455 11.3833 2.30141 11.1359C2.72828 10.8885 3.21664 10.7666 3.71002 10.7845C4.2034 10.8023 4.68165 10.959 5.08947 11.2365M4.26822 14.0165C4.27135 13.0311 4.55734 12.0668 5.08947 11.2365M12.1145 3.60869C12.1145 4.30056 11.839 4.96409 11.3485 5.45332C10.858 5.94254 10.1928 6.21739 9.4991 6.21739C8.80544 6.21739 8.1402 5.94254 7.64971 5.45332C7.15922 4.96409 6.88366 4.30056 6.88366 3.60869C6.88366 2.91682 7.15922 2.25329 7.64971 1.76407C8.1402 1.27484 8.80544 1 9.4991 1C10.1928 1 10.858 1.27484 11.3485 1.76407C11.839 2.25329 12.1145 2.91682 12.1145 3.60869ZM17.3454 6.21739C17.3454 6.47432 17.2947 6.72874 17.1961 6.96612C17.0975 7.20349 16.953 7.41918 16.7709 7.60086C16.5887 7.78253 16.3725 7.92665 16.1345 8.02498C15.8965 8.1233 15.6414 8.17391 15.3838 8.17391C15.1262 8.17391 14.8712 8.1233 14.6332 8.02498C14.3952 7.92665 14.1789 7.78253 13.9968 7.60086C13.8146 7.41918 13.6702 7.20349 13.5716 6.96612C13.473 6.72874 13.4223 6.47432 13.4223 6.21739C13.4223 5.69849 13.6289 5.20084 13.9968 4.83392C14.3647 4.467 14.8636 4.26087 15.3838 4.26087C15.9041 4.26087 16.403 4.467 16.7709 4.83392C17.1388 5.20084 17.3454 5.69849 17.3454 6.21739ZM5.57594 6.21739C5.57594 6.47432 5.52521 6.72874 5.42663 6.96612C5.32805 7.20349 5.18356 7.41918 5.00141 7.60086C4.81926 7.78253 4.60302 7.92665 4.36503 8.02498C4.12704 8.1233 3.87196 8.17391 3.61436 8.17391C3.35676 8.17391 3.10169 8.1233 2.8637 8.02498C2.62571 7.92665 2.40947 7.78253 2.22732 7.60086C2.04517 7.41918 1.90068 7.20349 1.8021 6.96612C1.70352 6.72874 1.65278 6.47432 1.65278 6.21739C1.65278 5.69849 1.85945 5.20084 2.22732 4.83392C2.59518 4.467 3.09412 4.26087 3.61436 4.26087C4.13461 4.26087 4.63354 4.467 5.00141 4.83392C5.36928 5.20084 5.57594 5.69849 5.57594 6.21739Z" stroke="#FF7043" stroke-width="1.5" stroke-linecap="round" stroke-linejoin="round"/>
</svg>
