<svg width="15" height="18" viewBox="0 0 15 18" fill="none" xmlns="http://www.w3.org/2000/svg">
<path d="M6.98788 2.72C6.93667 2.88154 6.90909 3.05308 6.90909 3.23077C6.90909 3.54923 7.17382 3.80769 7.5 3.80769H11.0455C11.2022 3.80769 11.3525 3.74691 11.4633 3.63872C11.5741 3.53052 11.6364 3.38378 11.6364 3.23077C11.6364 3.05762 11.6099 2.88545 11.5576 2.72M6.98788 2.72C7.09978 2.36669 7.3246 2.05764 7.62942 1.83811C7.93424 1.61857 8.30304 1.50009 8.68182 1.5H9.86364C10.661 1.5 11.3346 2.01385 11.5576 2.72M6.98788 2.72C6.69164 2.73769 6.39697 2.75846 6.1023 2.78154C5.21121 2.85385 4.54545 3.59462 4.54545 4.46769V6.11538M11.5576 2.72C11.8538 2.73769 12.1485 2.75846 12.4432 2.78154C13.3342 2.85385 14 3.59462 14 4.46769V12.4615C14 12.9206 13.8132 13.3608 13.4808 13.6854C13.1483 14.01 12.6974 14.1923 12.2273 14.1923H10.4545M4.54545 6.11538H1.88636C1.39709 6.11538 1 6.50308 1 6.98077V15.6346C1 16.1123 1.39709 16.5 1.88636 16.5H9.56818C10.0575 16.5 10.4545 16.1123 10.4545 15.6346V14.1923M4.54545 6.11538H9.56818C10.0575 6.11538 10.4545 6.50308 10.4545 6.98077V14.1923M3.95455 11.8846L5.13636 13.0385L7.5 10.1538" stroke="#FF7043" stroke-width="1.5" stroke-linecap="round" stroke-linejoin="round"/>
</svg>
