<?xml version="1.0" standalone="no"?>
<!DOCTYPE svg PUBLIC "-//W3C//DTD SVG 20010904//EN"
 "http://www.w3.org/TR/2001/REC-SVG-20010904/DTD/svg10.dtd">
<svg version="1.0" xmlns="http://www.w3.org/2000/svg"
 width="270.000000pt" height="194.000000pt" viewBox="0 0 270.000000 194.000000"
 preserveAspectRatio="xMidYMid meet">

<g transform="translate(0.000000,194.000000) scale(0.100000,-0.100000)"
fill="#000000" stroke="none">
<path d="M843 1905 c-215 -117 -368 -273 -471 -480 -113 -229 -133 -530 -51
-785 44 -134 158 -318 261 -417 66 -63 195 -152 276 -189 l72 -34 383 0 382 0
90 45 c50 25 106 54 125 66 38 23 240 219 240 232 0 5 15 27 34 50 39 49 88
142 79 151 -4 3 -2 6 4 6 6 0 13 8 16 18 36 129 59 224 62 252 21 223 14 299
-45 500 -52 175 -193 365 -362 487 -163 117 -206 133 -362 133 l-121 -1 91
-24 c278 -71 509 -261 633 -518 46 -95 83 -220 75 -253 -6 -23 -46 -41 -53
-23 -1 5 -9 2 -17 -8 -10 -13 -16 -15 -22 -6 -6 9 -15 8 -38 -6 -16 -10 -47
-21 -69 -25 -22 -4 -46 -12 -52 -18 -19 -15 -16 3 7 40 18 30 24 33 51 27 24
-6 30 -4 26 6 -3 9 12 22 42 35 l46 22 -28 7 c-17 5 -26 12 -23 21 10 26 -29
20 -46 -8 -14 -23 -25 -28 -55 -28 -21 0 -50 8 -65 18 l-27 18 51 43 c28 25
59 63 69 85 22 48 24 137 5 181 l-13 30 -8 -35 c-9 -39 -43 -98 -71 -120 -16
-14 -17 -13 -9 5 4 11 10 47 13 80 l4 60 -40 -43 c-22 -24 -43 -55 -47 -70 -4
-15 -14 -36 -23 -46 -16 -18 -16 -19 11 -12 33 8 34 3 5 -24 l-22 -20 30 0
c21 0 36 9 57 35 15 19 36 35 47 35 10 0 25 9 33 20 14 21 15 20 20 -5 7 -41
-34 -83 -85 -87 -46 -3 -66 -28 -23 -28 38 0 22 -17 -24 -25 -27 -4 -49 -2
-70 9 -26 14 -30 21 -25 44 4 19 -1 34 -15 51 -15 17 -21 37 -20 65 1 23 3 33
6 24 2 -10 8 -18 13 -18 12 0 -8 56 -25 70 -10 8 -23 6 -52 -9 -23 -12 -31
-20 -20 -21 32 0 41 -41 23 -109 -25 -100 -23 -113 37 -178 66 -71 77 -90 70
-126 -4 -22 -11 -27 -34 -27 -23 0 -29 -4 -29 -22 1 -20 2 -21 11 -6 5 9 15
15 22 12 14 -5 34 12 68 59 18 23 27 27 72 27 45 -1 50 -2 35 -14 -10 -7 -18
-18 -18 -25 0 -6 -7 -11 -15 -11 -8 0 -21 -13 -29 -28 -15 -28 -64 -51 -117
-53 -18 -1 -19 -3 -6 -6 10 -3 29 -15 42 -28 38 -34 147 -50 158 -22 4 10 -3
12 -24 9 -19 -3 -31 1 -35 11 -3 8 -13 13 -23 10 -11 -3 -21 2 -24 11 -4 11 9
22 50 40 30 15 61 26 68 26 8 0 15 5 17 10 5 17 71 23 117 10 50 -13 101 -58
101 -89 0 -11 -10 -27 -22 -35 -26 -17 -92 -34 -70 -18 8 5 12 20 10 33 -4 32
-42 38 -58 9 -9 -17 -7 -25 19 -50 44 -45 87 -37 117 21 20 40 12 73 -28 110
-29 26 -30 29 -12 35 10 4 31 16 47 26 l27 19 -1 -148 c0 -81 -3 -142 -6 -135
-3 8 -28 12 -74 12 l-69 0 0 -30 c0 -23 4 -30 20 -30 19 0 20 -7 20 -114 0
-63 3 -121 6 -129 3 -8 -12 -34 -35 -61 -22 -25 -38 -52 -35 -59 2 -7 -13 -31
-33 -53 -32 -34 -42 -39 -63 -33 -38 11 -137 58 -122 58 6 1 12 8 12 16 0 17
16 20 25 4 5 -6 11 -4 19 7 9 11 22 15 39 12 19 -4 24 -1 20 10 -9 22 -111 12
-150 -16 -17 -12 -44 -23 -60 -23 -17 -1 -21 -3 -10 -6 9 -2 15 -8 12 -12 -2
-5 6 -6 20 -4 40 8 94 -16 111 -49 9 -17 21 -27 29 -25 8 4 15 -4 18 -19 6
-33 -66 -96 -187 -162 -166 -91 -326 -128 -516 -119 -144 7 -246 33 -375 96
-102 50 -258 162 -237 169 7 2 12 12 12 23 0 12 5 16 15 12 11 -4 19 4 27 25
9 24 21 33 52 41 23 5 55 13 71 17 l30 8 -30 4 c-16 2 -40 13 -52 24 -17 16
-37 21 -84 22 -38 1 -64 -3 -66 -10 -2 -7 6 -10 22 -7 14 3 32 0 40 -7 8 -6
18 -9 23 -6 5 3 16 -4 25 -15 13 -14 13 -19 3 -19 -7 0 -33 -11 -57 -23 -58
-31 -96 -40 -105 -25 -5 7 -3 8 7 3 12 -8 12 -6 0 8 -7 9 -10 25 -6 34 6 17 7
17 22 -2 14 -19 14 -19 11 5 -4 34 -40 34 -48 0 l-6 -24 -17 24 c-9 13 -17 33
-17 44 0 11 -17 36 -37 55 l-37 36 3 120 c1 66 4 122 7 124 12 13 34 -78 34
-144 l0 -75 29 0 29 0 4 88 c2 50 10 98 19 112 13 23 14 16 17 -87 l3 -113 29
0 30 0 0 151 0 150 -42 -3 c-36 -2 -46 -8 -63 -35 -11 -18 -22 -32 -25 -32 -3
0 -14 14 -25 32 -17 27 -27 33 -62 35 l-42 3 -3 -88 -3 -88 -19 75 c-20 80
-33 276 -22 334 l7 35 36 -25 c20 -13 40 -24 45 -24 5 0 -7 -15 -26 -34 -47
-43 -49 -85 -7 -127 35 -34 59 -36 95 -8 36 28 33 74 -4 74 -22 0 -25 -4 -25
-32 0 -18 -1 -33 -2 -33 -2 0 -21 7 -43 16 -33 14 -40 21 -40 44 0 56 100 108
182 95 l40 -7 -24 -26 c-18 -22 -19 -23 -2 -9 27 23 41 22 107 -9 41 -18 54
-29 50 -40 -3 -9 -13 -14 -24 -11 -10 3 -20 -2 -23 -10 -4 -10 -16 -14 -35
-11 -21 3 -28 1 -24 -9 12 -30 130 -7 162 30 7 10 25 17 40 17 20 0 22 3 11 9
-8 6 -18 7 -22 4 -5 -2 -30 0 -56 7 -39 9 -50 17 -59 41 -6 16 -18 29 -27 29
-9 0 -16 5 -16 11 0 7 -8 18 -17 25 -16 12 -10 14 42 12 57 -3 61 -5 75 -35 8
-18 21 -33 28 -33 6 0 12 -5 12 -11 0 -6 7 -9 15 -5 8 3 19 -2 24 -12 9 -15
10 -14 11 5 0 16 -7 22 -27 25 -20 2 -28 8 -27 21 1 9 -2 17 -7 17 -18 0 21
59 65 100 66 62 73 86 51 174 -20 78 -15 122 13 128 12 3 8 8 -17 21 -33 17
-36 17 -52 0 -9 -10 -20 -29 -24 -43 -7 -24 -7 -24 9 -5 15 19 15 18 16 -18 0
-23 -8 -49 -21 -66 -12 -16 -19 -39 -17 -55 3 -24 -2 -30 -35 -43 -33 -14 -44
-14 -80 -2 l-42 13 32 4 c23 2 30 7 26 18 -4 10 3 14 28 14 33 0 33 0 11 16
-30 21 -28 36 5 28 l27 -7 -22 28 c-12 15 -22 35 -22 45 0 9 -19 36 -41 60
l-42 44 5 -60 c3 -32 9 -68 13 -79 7 -18 5 -17 -18 4 -31 29 -67 97 -68 132
-2 53 -32 -46 -32 -107 -1 -73 30 -135 90 -179 21 -16 40 -30 43 -33 13 -11
-46 -42 -81 -42 -31 0 -43 6 -60 29 -21 29 -49 32 -49 6 0 -7 -10 -16 -22 -20
-21 -6 -18 -9 24 -29 38 -18 45 -25 35 -35 -10 -11 -6 -12 20 -6 29 6 34 3 53
-27 11 -18 20 -36 20 -39 0 -9 -86 19 -132 43 -28 14 -37 15 -41 6 -4 -10 -10
-8 -20 5 -8 10 -17 13 -18 8 -6 -15 -49 -1 -49 16 0 8 -5 11 -11 7 -7 -4 -9 0
-6 12 4 11 12 42 18 69 52 210 203 423 391 553 78 54 210 114 302 138 l91 23
-125 0 c-123 0 -126 -1 -187 -34z m-103 -508 c0 -5 -7 -4 -15 3 -8 7 -15 20
-15 29 1 13 3 13 15 -3 8 -11 15 -24 15 -29z m1170 13 c-6 -12 -14 -19 -17
-17 -2 3 1 15 7 27 6 12 14 19 17 17 2 -3 -1 -15 -7 -27z m-1270 -10 c18 0 60
-40 60 -57 0 -14 -57 -18 -75 -5 -29 21 -46 52 -40 72 6 20 8 20 24 6 10 -9
24 -16 31 -16z m1614 -637 c-4 -16 -13 -44 -20 -63 l-13 -35 0 63 c-1 56 1 62
19 62 17 0 19 -4 14 -27z m-1629 -452 c-3 -6 -11 -8 -17 -5 -6 4 -5 9 3 15 16
10 23 4 14 -10z m1380 9 c3 -5 1 -10 -4 -10 -6 0 -11 5 -11 10 0 6 2 10 4 10
3 0 8 -4 11 -10z"/>
<path d="M1230 1764 c-6 -14 -10 -29 -10 -34 0 -4 -29 -22 -64 -38 -77 -36
-140 -98 -175 -172 -36 -78 -36 -200 0 -280 27 -57 90 -130 131 -150 13 -7 0
9 -29 34 -32 29 -63 70 -82 108 -27 53 -31 72 -31 142 0 94 24 157 85 225 39
43 150 105 168 94 6 -4 -2 -11 -19 -17 -84 -31 -145 -90 -185 -182 -32 -71
-30 -171 4 -244 33 -73 106 -145 168 -167 27 -10 49 -21 49 -24 0 -9 -37 -4
-64 7 -13 5 -17 4 -12 -4 3 -6 2 -13 -4 -17 -9 -6 -14 7 -11 27 1 8 -46 -10
-66 -25 -6 -4 -27 -7 -45 -5 -25 2 -36 10 -48 33 -16 33 -52 44 -76 25 -18
-16 -18 -49 1 -56 22 -9 47 15 39 39 -4 14 -2 18 7 15 8 -3 15 -16 17 -29 4
-32 -32 -65 -83 -79 l-40 -10 42 5 c23 3 47 7 55 10 8 3 18 -6 25 -24 15 -40
57 -52 84 -24 23 23 17 49 -14 59 -15 5 -26 0 -38 -15 -20 -24 -32 -8 -17 22
11 22 50 22 131 0 47 -12 73 -27 107 -60 63 -60 99 -59 157 1 37 38 53 47 116
62 92 21 127 15 126 -24 l0 -27 -16 23 c-20 28 -49 28 -64 1 -9 -18 -7 -25 9
-42 28 -28 67 -17 81 24 8 24 15 30 28 25 9 -4 38 -9 63 -11 l45 -4 -44 9
c-67 14 -93 35 -89 72 2 17 9 33 17 36 9 3 11 -1 7 -15 -8 -24 15 -46 38 -37
20 8 21 37 2 54 -24 19 -60 8 -76 -25 -19 -37 -63 -44 -111 -19 -30 15 -33 15
-45 0 -7 -11 -15 -13 -18 -7 -4 6 8 18 25 27 18 9 53 36 79 60 104 97 135 252
76 381 -34 74 -110 150 -178 179 -36 15 -51 27 -64 56 l-17 38 -69 0 c-64 0
-69 -2 -78 -26z m284 -122 c164 -113 181 -375 34 -508 -55 -49 -144 -92 -160
-76 -9 9 -8 12 5 12 10 0 37 10 60 23 l42 22 -38 3 -37 3 2 247 3 247 45 5 45
5 -35 21 c-19 12 -45 25 -57 29 -13 3 -23 11 -23 16 0 13 66 -16 114 -49z
m-234 -592 c0 -5 -7 -10 -15 -10 -8 0 -15 5 -15 10 0 6 7 10 15 10 8 0 15 -4
15 -10z m90 1 c0 -5 -7 -11 -15 -15 -9 -3 -15 0 -15 9 0 8 7 15 15 15 8 0 15
-4 15 -9z m-40 -21 c0 -23 4 -24 31 -9 12 6 34 7 52 3 l32 -7 -29 -8 c-32 -9
-233 -5 -242 4 -3 3 11 9 31 13 23 4 41 2 48 -5 17 -17 37 -13 37 9 0 13 7 20
20 20 13 0 20 -7 20 -20z m28 -59 c3 -10 -1 -12 -17 -8 -14 3 -21 0 -21 -9 0
-8 -4 -14 -10 -14 -5 0 -10 6 -10 14 0 9 -7 12 -20 9 -20 -5 -27 7 -13 21 13
12 86 2 91 -13z"/>
<path d="M1540 1480 l0 -40 40 0 c44 0 45 2 29 49 -9 25 -16 31 -40 31 -27 0
-29 -3 -29 -40z"/>
<path d="M1540 1274 c0 -62 1 -65 22 -62 23 3 48 44 62 101 6 26 5 27 -39 27
l-45 0 0 -66z"/>
<path d="M822 1420 c0 -14 2 -19 5 -12 2 6 2 18 0 25 -3 6 -5 1 -5 -13z"/>
<path d="M1797 1426 c-4 -10 -5 -21 -2 -24 9 -9 17 6 13 25 -3 17 -4 17 -11
-1z"/>
<path d="M748 1293 c7 -3 16 -2 19 1 4 3 -2 6 -13 5 -11 0 -14 -3 -6 -6z"/>
<path d="M591 1003 c3 -20 -2 -24 -16 -13 -12 10 -15 9 -15 -4 0 -22 30 -33
41 -15 12 19 11 39 -1 39 -5 0 -9 -3 -9 -7z"/>
<path d="M2047 996 c-4 -11 -13 -16 -22 -12 -8 3 -15 1 -15 -5 0 -15 30 -23
42 -11 5 5 8 18 6 28 -3 19 -4 19 -11 0z"/>
<path d="M719 831 c-23 -18 -24 -25 -24 -135 0 -136 8 -151 80 -151 72 0 80
15 80 151 0 110 -1 117 -24 135 -13 10 -38 19 -56 19 -18 0 -43 -9 -56 -19z
m71 -136 c0 -78 -3 -95 -15 -95 -12 0 -15 17 -15 95 0 78 3 95 15 95 12 0 15
-17 15 -95z"/>
<path d="M919 831 c-23 -18 -24 -25 -24 -135 0 -136 8 -151 80 -151 72 0 80
15 80 151 0 110 -1 117 -24 135 -13 10 -38 19 -56 19 -18 0 -43 -9 -56 -19z
m71 -136 c0 -78 -3 -95 -15 -95 -12 0 -15 17 -15 95 0 78 3 95 15 95 12 0 15
-17 15 -95z"/>
<path d="M1100 700 l0 -150 30 0 30 0 0 92 c0 73 3 89 12 80 8 -8 14 -47 17
-92 l3 -80 34 0 34 0 0 151 0 150 -32 -3 c-28 -2 -34 -8 -38 -33 l-5 -30 -14
33 c-11 26 -19 32 -42 32 l-29 0 0 -150z"/>
<path d="M1400 700 l0 -150 70 0 c68 0 70 1 70 25 0 23 -4 25 -40 25 l-40 0 0
40 c0 39 1 40 35 40 32 0 35 2 35 30 0 28 -3 30 -35 30 -31 0 -35 3 -35 25 0
22 4 25 35 25 32 0 35 2 35 30 l0 30 -65 0 -65 0 0 -150z"/>
<path d="M1561 758 c0 -58 7 -113 17 -148 17 -54 18 -55 59 -58 39 -3 43 0 59
30 13 24 19 65 22 151 l4 117 -31 0 -31 0 -1 -97 c-2 -182 -27 -191 -31 -13
l-3 105 -32 3 -33 3 1 -93z"/>
<path d="M1760 700 l0 -150 65 0 c63 0 65 1 65 25 0 22 -4 25 -35 25 -34 0
-35 1 -35 40 0 39 1 40 35 40 32 0 35 2 35 30 0 28 -3 30 -35 30 -31 0 -35 3
-35 25 0 22 4 25 35 25 32 0 35 2 35 30 l0 30 -65 0 -65 0 0 -150z"/>
<path d="M1930 700 l0 -150 30 0 30 0 1 98 c1 90 2 95 14 67 8 -16 17 -60 21
-97 6 -67 7 -68 35 -68 l29 0 0 150 0 150 -29 0 c-27 0 -30 -3 -33 -37 l-3
-38 -22 38 c-16 27 -29 37 -48 37 l-25 0 0 -150z"/>
<path d="M1229 427 c-35 -35 -57 -47 -111 -60 -37 -9 -76 -17 -87 -17 -25 0
-52 27 -45 45 5 12 9 11 23 -6 12 -15 23 -20 38 -15 29 9 37 35 16 58 -26 29
-65 20 -83 -19 -10 -22 -20 -31 -30 -27 -8 3 -31 7 -50 10 -34 4 -34 3 -5 -4
67 -18 98 -55 81 -97 -8 -22 -28 -19 -21 4 7 22 -18 46 -40 37 -24 -9 -18 -45
9 -58 33 -14 55 -4 69 32 9 25 17 30 43 30 17 0 47 -7 67 -15 31 -13 36 -13
41 1 3 9 11 12 18 8 7 -4 26 -8 42 -7 17 0 34 -5 38 -11 5 -7 8 -4 8 7 0 9 6
17 14 17 9 0 13 -10 12 -31 -1 -38 25 -60 52 -43 12 8 16 22 14 48 -2 29 0 35
13 30 8 -3 15 -14 15 -23 0 -12 2 -13 9 -3 5 8 21 12 37 11 16 -2 35 0 42 4 7
5 12 3 12 -4 0 -7 10 -9 33 -4 17 3 50 8 73 10 37 3 41 1 51 -26 14 -35 36
-45 69 -31 27 13 33 49 9 58 -22 9 -47 -15 -39 -39 4 -14 2 -18 -7 -15 -8 3
-15 19 -17 36 -4 34 22 58 81 73 l32 9 -35 -4 c-19 -3 -43 -7 -52 -11 -13 -5
-20 0 -28 21 -12 32 -27 44 -52 44 -17 0 -48 -25 -48 -40 0 -11 29 -40 40 -40
5 0 18 10 30 22 20 22 20 22 20 1 0 -42 -24 -48 -112 -30 -73 15 -86 22 -127
62 -63 62 -100 62 -162 2z m91 3 c0 -5 9 -10 21 -10 12 0 19 -5 17 -12 -6 -18
-90 -17 -96 1 -3 10 1 12 17 8 14 -3 21 0 21 9 0 8 5 14 10 14 6 0 10 -4 10
-10z m-58 -65 c-16 -12 -32 -14 -59 -8 l-38 7 30 7 c17 4 43 7 60 8 29 1 29 1
7 -14z m138 8 l55 -6 -39 -9 c-25 -5 -43 -5 -50 2 -17 17 -36 11 -36 -10 0
-13 -7 -20 -20 -20 -13 0 -20 7 -20 18 0 33 9 35 110 25z"/>
<path d="M2017 414 c-11 -12 -8 -26 5 -18 6 4 17 -2 25 -12 14 -18 14 -18 11
6 -3 24 -27 38 -41 24z"/>
<path d="M836 355 c-3 -9 -12 -12 -22 -8 -12 4 -15 3 -10 -5 12 -20 46 -14 46
8 0 24 -6 26 -14 5z"/>
<path d="M1770 353 c0 -25 33 -33 46 -11 5 8 2 9 -9 5 -10 -4 -20 0 -26 11 -9
15 -10 14 -11 -5z"/>
</g>
</svg>
